<?xml version="1.0" encoding="UTF-8"?>
<svg id="Layer_1" data-name="Layer 1" xmlns="http://www.w3.org/2000/svg" viewBox="0 0 92 89.67">
  <defs>
    <style>
      .cls-1 {
        fill: #fff;
        stroke-width: 0px;
      }
    </style>
  </defs>
  <path class="cls-1" d="M31.58,89.67c1.42-.61,2.42-2.03,2.42-3.67v-10.8c0-.39.03-.8.08-1.22-.03,0-.05.01-.08.02h-7.2c-3,0-5.6-1.2-6.8-3.6-1.4-2.6-2-7-5.6-9.4-.6-.4-.2-1,1-1,1.2.2,3.8,1.8,5.4,4,1.8,2.2,3.6,4,6.8,4,4.97,0,7.64-.25,9.24-1.11,1.87-2.78,4.45-4.89,7.16-4.89v-.05c-11.34-.36-18.58-4.13-21.95-9.95-7.33.08-13.71.81-17.35,1.41-.12-.65-.22-1.31-.3-1.97,3.59-.59,9.69-1.29,16.69-1.43-.22-.55-.42-1.12-.58-1.7-7.02-.36-13.08-.08-16.37.19-.04-.66-.09-1.33-.1-2,3.3-.27,9.19-.54,16.04-.22-.16-1-.26-2.02-.26-3.09,0-3.4,1.2-7,3.4-10-1-3.4-2.4-10.6.4-13.2,5.4,0,9.2,2.6,11,4.2,3.4-1.4,7.2-2.2,11.4-2.2s8,.8,11.2,2.2c1.8-1.6,5.6-4.2,11-4.2,3,2.8,1.4,10,.4,13.2,2.2,3,3.4,6.4,3.2,10,0,.97-.09,1.9-.22,2.82,7-.34,13.05-.07,16.41.2,0,.67-.07,1.33-.1,2-3.34-.28-9.55-.56-16.72-.18-.18.67-.39,1.33-.65,1.96,7.09.09,13.33.78,17.1,1.38-.09.66-.19,1.32-.3,1.97-3.82-.61-10.34-1.33-17.76-1.36-3.33,5.76-10.44,9.51-21.55,9.95v.06c5.2,0,10,7.8,10,13.2v10.8c0,1.65,1,3.06,2.42,3.67,18.32-6.06,31.58-23.34,31.58-43.67C92,20.64,71.37,0,46,0S0,20.64,0,46c0,20.33,13.26,37.61,31.58,43.67Z"/>
</svg>